<?xml version="1.0" encoding="UTF-8" standalone="no"?>
<!DOCTYPE svg PUBLIC "-//W3C//DTD SVG 1.1//EN" "http://www.w3.org/Graphics/SVG/1.1/DTD/svg11.dtd">
<svg width="100%" height="100%" viewBox="0 0 512 512" version="1.1" xmlns="http://www.w3.org/2000/svg" xmlns:xlink="http://www.w3.org/1999/xlink" xml:space="preserve" xmlns:serif="http://www.serif.com/" style="fill-rule:evenodd;clip-rule:evenodd;stroke-linejoin:round;stroke-miterlimit:2;">
  <style>
    path {
      fill: rgb(61,61,61);
    }
    @media (prefers-color-scheme: dark) {
      path {
        fill: rgb(255,255,255);
      }
    }
  </style>
    <g transform="matrix(4.19378,0,0,4.19378,390.302,202.777)">
        <path d="M0,25.382C-6.369,25.382 -12.151,20.384 -12.151,12.642C-12.151,4.998 -6.369,-0.098 0,-0.098C6.076,-0.098 11.858,4.998 11.858,12.642C11.858,20.384 6.076,25.382 0,25.382M-63.755,25.382C-70.125,25.382 -75.906,20.384 -75.906,12.642C-75.906,4.998 -70.125,-0.098 -63.755,-0.098C-57.679,-0.098 -51.897,4.998 -51.897,12.642C-51.897,20.384 -57.679,25.382 -63.755,25.382M0,-13.23C-6.579,-13.23 -12.656,-11.198 -17.397,-7.6L-37.591,6.218C-40.486,-5.639 -51.285,-13.23 -63.755,-13.23C-78.651,-13.23 -90.999,-2.843 -90.999,12.642C-90.999,28.224 -78.651,38.612 -63.755,38.612C-57.06,38.612 -50.855,36.407 -46.08,32.539L-26.455,19.109C-23.552,31.023 -12.719,38.612 0,38.612C14.603,38.612 26.951,28.224 26.951,12.642C26.951,-2.843 14.603,-13.23 0,-13.23" style="fill-rule:nonzero;"/>
    </g>
</svg>
